# xmcd CD database file
#
# Track frame offsets:
#	150
#	19550
#	34760
#	53767
#	66225
#	80875
#	94725
#	108135
#	128945
#	142467
#	157445
#	171340
#	189595
#	203420
#	217992
#	239680
#	263172
#	281677
#	295710
#	309610
#
# Disc length: 4286 seconds
#
# Revision: 0
# Processed by: cddbd v1.5.1PL0 Copyright (c) Steve Scherf et al.
# Submitted via: CDex 1.51
#
DISCID=3410bc14
DTITLE=Various Artist - The Commodore Story - Disc 2
DYEAR=1900
DGENRE=Jazz
TTITLE0=Wild  Bill Davison - That's a Plenty
TTITLE1=Bobby Hackett - New Orleans
TTITLE2=Muggsy Spanier - Memphis Blues
TTITLE3=Sideny De Paris - The Sheik of Araby
TTITLE4=Hot Lips Page - You Need Coachin'
TTITLE5=Jack Teagarden - Diane
TTITLE6=George Brunies - Tin Roof Blues
TTITLE7=Mitt Mole - Peg O' My Heart
TTITLE8=Pee Wee Russell - Keeping Out of Mischief Now
TTITLE9=Edmond Hall - The Man I Love
TTITLE10=Bud Freeman - The Blue Room
TTITLE11=Chu Berry - Sunny Side of the Street
TTITLE12=Art Hades - A Selection From the Gutter
TTITLE13=Joe Sullivan - Summertime
TTITLE14=Jess Stacy - Ecstacy
TTITLE15=Eddie Heywood - Begin the Beguine
TTITLE16=Albert Ammons - Jammin the Boogie
TTITLE17=George Zack - Lazy River
TTITLE18=Willie "the Lion" Smith - Finger Bustin
TTITLE19=Ralph Sutton - Squeeze Me
EXTD=
EXTT0=
EXTT1=
EXTT2=
EXTT3=
EXTT4=
EXTT5=
EXTT6=
EXTT7=
EXTT8=
EXTT9=
EXTT10=
EXTT11=
EXTT12=
EXTT13=
EXTT14=
EXTT15=
EXTT16=
EXTT17=
EXTT18=
EXTT19=
PLAYORDER=
